<?xml version="1.0" encoding="UTF-8"?>
<svg viewBox="0 0 785 145" xmlns="http://www.w3.org/2000/svg">
  <defs>
    <style>
      .cls-1 {
        fill: #111111;
        stroke-width: 0;
      }
      .cls-2 {
        fill: #000000;
        font-family: Arial, -apple-system, BlinkMacSystemFont, 'Segoe UI', Roboto, sans-serif;
        font-size: 72px;
      }
    </style>
  </defs>
  <g>
    <path class="cls-1" d="M42.78,44.1v20.5h-20.65v13.87c0,11.36,7.52,17.11,18.44,17.11,1.33,0,2.51-.15,3.54-.3s1.92-.3,2.95-.44v20.5c-1.33.15-2.36.44-3.1.59-.89.15-2.36.15-4.28.15C17.41,116.08,0,100.89,0,78.47V23.9h22.13v20.21s20.65,0,20.65,0ZM77.88,78.47v36.88h-22.13v-36.73c0-24.49,18-37.76,40.71-37.76.74,0,1.77,0,2.8.15s2.21.44,3.25.59v21.39c-.74-.15-1.62-.3-2.66-.44s-1.92-.3-2.66-.3c-3.69,0-6.64.44-9.15,1.18-4.13,1.48-7.82,4.28-9.15,8.7-.74,1.92-1.03,4.13-1.03,6.34ZM163.87,78.47c-.59-10.77-5.46-17.11-16.67-17.11-3.1,0-5.75.44-7.97,1.33-6.79,3.1-9.29,8.85-9.29,15.93,0,2.36.3,4.57,1.03,6.49,2.21,7.67,8.85,10.47,16.23,10.47,11.21,0,16.67-6.05,16.67-17.11ZM191.9,115.35h-22.13c-1.48-3.69-2.8-7.38-3.69-11.21-5.02,8.26-12.69,11.95-22.13,11.95-21.09,0-36.14-17.7-36.14-37.91,0-23.31,17.41-37.32,39.38-37.32,23.45,0,38.2,15.05,38.79,37.61.15,1.92.15,4.13.15,6.79,0,10.33,1.62,20.65,5.75,30.09ZM275.97,78.47v36.88h-22.13v-36.88c0-10.18-4.72-17.11-15.49-17.11s-15.49,7.08-15.49,17.11v36.88h-22.13v-36.88c0-22.72,15.64-37.61,37.61-37.61s37.61,15.64,37.61,37.61ZM341.32,78.47c0-11.06-5.46-17.11-16.67-17.11-3.1,0-5.75.44-7.97,1.33-4.13,1.92-6.93,4.72-8.26,9.15-.74,2.07-1.03,4.28-1.03,6.64s.3,4.57,1.03,6.64c1.18,4.28,4.28,7.38,8.26,9,2.21,1.03,4.87,1.48,7.97,1.48,11.21,0,16.67-6.05,16.67-17.11ZM363.44,78.47v66.38h-22.13v-37.02c-5.16,5.9-12.1,8.26-19.77,8.26-21.09,0-36.29-17.55-36.29-37.91,0-23.31,17.26-37.32,39.24-37.32,23.16,0,38.94,14.75,38.94,37.61h0ZM430.11,41.6h22.13v36.88c0,22.57-15.64,37.61-37.61,37.61s-37.61-15.78-37.61-37.61v-36.88h22.13v36.88c0,9.88,5.02,17.11,15.49,17.11s15.49-7.08,15.49-17.11v-36.88ZM466.25,41.6h22.13v73.75h-22.13V41.6ZM477.31,34.66c-7.52,0-12.83-5.31-12.83-12.83s5.31-12.69,12.83-12.69,12.69,5.02,12.69,12.69-4.87,12.83-12.69,12.83ZM502.68,12.1h22.13v103.25h-22.13V12.1ZM592.07,78.47c-.59-10.77-5.46-17.11-16.67-17.11-3.1,0-5.75.44-7.97,1.33-6.79,3.1-9.29,8.85-9.29,15.93,0,2.36.3,4.57,1.03,6.49,2.21,7.67,8.85,10.47,16.23,10.47,11.21,0,16.67-6.05,16.67-17.11h0ZM620.09,115.35h-22.13c-1.47-3.69-2.8-7.38-3.69-11.21-5.02,8.26-12.69,11.95-22.13,11.95-21.09,0-36.14-17.7-36.14-37.91,0-23.31,17.41-37.32,39.38-37.32,23.45,0,38.2,15.05,38.79,37.61.15,1.92.15,4.13.15,6.79,0,10.33,1.62,20.65,5.75,30.09ZM648.86,69.62c2.21.74,4.72,1.33,7.38,1.62,2.66.44,5.16.59,7.52.59,2.95,0,10.47-.59,10.47-4.87,0-4.57-6.49-4.72-9.74-4.72-6.49,0-12.1,1.48-15.64,7.38h0ZM690.6,92.34v20.65c-8.26,1.92-16.52,3.25-25.08,3.25-23.45,0-40.86-13.72-40.86-37.47s16.82-37.91,39.09-37.91c15.19,0,32.75,7.23,32.75,24.49s-18.59,23.45-32.89,23.45c-5.46,0-10.92-1.48-15.93-3.54,2.95,8.26,11.8,9.59,19.47,9.59,3.98,0,7.97-.15,11.95-.74,3.69-.3,7.97-.74,11.51-1.77Z"/>
  </g>
  <text class="cls-2" transform="translate(694.62 60.26)">
    <tspan x="0" y="0">®</tspan>
  </text>
</svg>
